Coordinates
version=1
nRows=9
nColumns=63
inDegrees=yes

Units are S.I. units (second, meters, Newtons, ...)
If the header above contains a line with 'inDegrees', this indicates whether rotational values are in degrees (yes) or radians (no).

endheader
time	pelvis_tilt	pelvis_list	pelvis_rotation	pelvis_tx	pelvis_ty	pelvis_tz	hip_flexion_r	hip_adduction_r	hip_rotation_r	knee_angle_r	knee_angle_r_beta	ankle_angle_r	subtalar_angle_r	mtp_angle_r	hip_flexion_l	hip_adduction_l	hip_rotation_l	knee_angle_l	knee_angle_l_beta	ankle_angle_l	subtalar_angle_l	mtp_angle_l	L5_S1_Flex_Ext	L5_S1_Lat_Bending	L5_S1_axial_rotation	L4_L5_Flex_Ext	L4_L5_Lat_Bending	L4_L5_axial_rotation	L3_L4_Flex_Ext	L3_L4_Lat_Bending	L3_L4_axial_rotation	L2_L3_Flex_Ext	L2_L3_Lat_Bending	L2_L3_axial_rotation	L1_L2_Flex_Ext	L1_L2_Lat_Bending	L1_L2_axial_rotation	L1_T12_Flex_Ext	L1_T12_Lat_Bending	L1_T12_axial_rotation	Abs_r3	Abs_r2	Abs_r1	Abs_t1	Abs_t2	neck_flexion	neck_bending	neck_rotation	arm_flex_r	arm_add_r	arm_rot_r	elbow_flex_r	pro_sup_r	wrist_flex_r	wrist_dev_r	arm_flex_l	arm_add_l	arm_rot_l	elbow_flex_l	pro_sup_l	wrist_flex_l	wrist_dev_l
      1.01694915	     -1.47690983	     -6.07274282	     82.37500370	      0.10773519	      0.98100081	      0.29346501	      0.01600680	     -0.11482965	    -14.90333459	      3.97704034	      0.06941245	     17.41809286	     17.17747321	      0.00000000	      0.68766054	      2.25929899	     -0.67389877	      4.06867614	      0.07101179	     12.84280829	    -16.69463771	      0.00000000	      0.05369854	      0.02317910	      0.68947257	      0.09972356	      0.03082820	      0.73256460	      0.08822133	      0.05635766	      0.73256460	      0.06137206	      0.05635766	      0.60328850	      0.04986446	      0.04726682	      0.56019646	      0.03068335	      0.03590443	      0.51710443	      0.38356330	      0.26220662	      3.83463958	      0.00000000	      0.00000000	     14.31829912	      1.06857942	     -7.12216182	     28.11976806	    -13.16907029	     63.15391888	     51.64035020	     89.05989916	    -16.97245414	     -3.23047092	     23.19199160	    -16.76366082	     50.61848318	     35.13780634	     87.31598165	     -1.46945815	      0.16795450
      1.03389831	     -1.53297308	     -6.26611037	     82.55912594	      0.10740297	      0.98030339	      0.29321327	     -0.00649380	     -0.09952478	    -14.80004601	      3.58816909	      0.06262536	     17.12645990	     16.93629556	      0.00000000	      0.87192614	      2.32936225	     -0.47141744	      3.93094284	      0.06860790	     12.87753737	    -16.79069184	      0.00000000	      0.06787428	      0.01335121	      0.74207903	      0.12604932	      0.01775711	      0.78845897	      0.11151065	      0.03246214	      0.78845897	      0.07757351	      0.03246214	      0.64931915	      0.06302805	      0.02722579	      0.60293921	      0.03878336	      0.02068103	      0.55655927	      0.48481918	      0.15103157	      4.12722094	      0.00000000	      0.00000000	     14.80493490	      1.00149128	     -7.83814371	     27.02993934	    -13.37937286	     60.94942747	     50.56295738	     88.89397442	    -19.08798485	     -2.98960440	     21.83761900	    -16.42256083	     47.11319266	     34.68301067	     84.77990234	     -2.92848926	      1.27626974
      1.05084746	     -1.59032865	     -6.46217782	     82.73414995	      0.10706091	      0.97960437	      0.29308499	     -0.02420735	     -0.08542399	    -14.57995419	      3.17932179	      0.05548963	     16.88801020	     16.65648834	      0.00000000	      1.07325322	      2.40007805	     -0.37170326	      3.81523360	      0.06658839	     12.83785431	    -16.85158600	      0.00000000	      0.08373777	      0.00588656	      0.77560046	      0.15550942	      0.00782913	      0.82407549	      0.13757279	      0.01431258	      0.82407549	      0.09570390	      0.01431258	      0.67865040	      0.07775890	      0.01200388	      0.63017537	      0.04784776	      0.00911828	      0.58170035	      0.59813055	      0.06658996	      4.31365708	      0.00000000	      0.00000000	     15.31584398	      0.89968180	     -8.34487234	     25.37974655	    -13.31422502	     57.19117334	     49.71433683	     88.58713251	    -19.72822533	     -2.28514665	     20.52715142	    -16.10120537	     43.39252302	     34.62896695	     81.31581447	     -3.71003167	      3.41067859
      1.06779661	     -1.65955474	     -6.62595962	     82.83335528	      0.10702065	      0.97909785	      0.29359424	     -0.00498907	     -0.07174753	    -14.11755257	      2.81088611	      0.04905922	     16.65932141	     16.13071418	      0.00000000	      1.29218868	      2.46547847	     -0.47959009	      3.74237661	      0.06531679	     12.66705834	    -16.88678589	      0.00000000	      0.08987404	     -0.00266840	      0.79569996	      0.16690508	     -0.00354897	      0.84543121	      0.14765406	     -0.00648794	      0.84543121	      0.10271704	     -0.00648794	      0.69623747	      0.08345704	     -0.00544139	      0.64650622	      0.05135403	     -0.00413335	      0.59677497	      0.64196129	     -0.03018544	      4.42544448	      0.00000000	      0.00000000	     15.70155595	      0.66342603	     -8.70635515	     23.67589424	    -12.93807090	     52.43451219	     48.85040741	     88.37608440	    -17.89733998	     -1.35805249	     19.94549370	    -16.23160733	     41.67974162	     34.72848396	     78.53124485	     -3.83999604	      6.59555249
      1.08474576	     -1.62545178	     -6.72915957	     82.90488298	      0.10700888	      0.97884202	      0.29406026	     -0.04166304	      0.03130872	    -13.82855544	      2.47838713	      0.04325602	     16.48102517	     15.84677997	      0.00000000	      1.44908361	      2.42152227	     -0.73153433	      3.72941767	      0.06509062	     12.46709610	    -16.71534685	      0.00000000	      0.09200127	      0.00682522	      0.81078323	      0.17085556	      0.00907755	      0.86145718	      0.15114889	      0.01659484	      0.86145718	      0.10514825	      0.01659484	      0.70943532	      0.08543238	      0.01391799	      0.65876137	      0.05256953	      0.01057227	      0.60808742	      0.65715589	      0.07720828	      4.50933307	      0.00000000	      0.00000000	     15.94842650	      0.59852900	     -8.50988990	     22.31440312	    -12.62943436	     48.63029133	     47.84367033	     88.29903357	    -16.81462472	     -1.29943073	     19.84377502	    -16.50286392	     41.89190241	     34.28834013	     78.00322457	     -4.05962523	      8.61500391
      1.10169492	     -1.50406910	     -6.75991537	     82.96210117	      0.10683419	      0.97884981	      0.29450368	     -0.14548186	      0.19330164	    -13.69199946	      2.18037401	      0.03805471	     16.31829219	     15.79670202	      0.00000000	      1.49487666	      2.31477617	     -1.02956256	      3.68623945	      0.06433702	     12.33017419	    -16.54207797	      0.00000000	      0.08991086	      0.03504398	      0.77668370	      0.16697345	      0.04660849	      0.82522644	      0.14771455	      0.08520592	      0.82522644	      0.10275912	      0.08520592	      0.67959824	      0.08349122	      0.07146168	      0.63105551	      0.05137506	      0.05428312	      0.58251278	      0.64222427	      0.39642447	      4.31968176	      0.00000000	      0.00000000	     15.85710729	      0.27314074	     -7.80749052	     21.79776544	    -12.52075306	     46.99954825	     46.46146521	     88.47862489	    -16.52650169	     -1.79637692	     19.83580818	    -16.93135758	     43.07013930	     33.51584338	     78.88062231	     -3.62175570	     10.11626457
      1.11864407	     -1.36216926	     -6.70973248	     82.98697851	      0.10687713	      0.97907501	      0.29452354	     -0.32306249	      0.36381805	    -13.56776303	      1.96776169	      0.03434392	     16.28504590	     15.79094914	      0.00000000	      1.40677674	      2.17386139	     -1.37998865	      3.62535376	      0.06327436	     12.17277204	    -16.18248998	      0.00000000	      0.08553417	      0.05485839	      0.75701594	      0.15884550	      0.07296165	      0.80432943	      0.14052408	      0.13338268	      0.80432943	      0.09775700	      0.13338268	      0.66238894	      0.07942703	      0.11186722	      0.61507545	      0.04887422	      0.08497564	      0.56776195	      0.61096200	      0.62056905	      4.21029553	      0.00000000	      0.00000000	     15.72101038	      0.36528032	     -7.37497728	     21.66728444	    -12.73940525	     46.69020116	     44.92076102	     88.75409160	    -15.87496322	     -2.83899268	     19.97402726	    -17.57811895	     45.33444530	     32.71850647	     81.05400958	     -2.29993133	     11.65684870
      1.13559322	     -1.29351107	     -6.52706497	     82.92672502	      0.10722157	      0.97960734	      0.29457179	     -0.59288756	      0.43802463	    -13.41866816	      1.82981682	      0.03193633	     16.29410946	     15.83406580	      0.00000000	      1.15904864	      2.10759605	     -1.97141396	      3.53545321	      0.06170530	     11.99313669	    -15.54473208	      0.00000000	      0.06102022	      0.05609421	      0.77317644	      0.11332064	      0.07460530	      0.82149997	      0.10025011	      0.13638746	      0.82149997	      0.06974000	      0.13638746	      0.67652939	      0.05666337	      0.11438731	      0.62820586	      0.03486695	      0.08688993	      0.57988233	      0.43586130	      0.63454892	      4.30017542	      0.00000000	      0.00000000	     15.60351414	      0.58315707	     -7.43574403	     21.90397488	    -13.17004317	     47.84866904	     43.17354527	     88.96435167	    -16.25069027	     -4.20441010	     20.28050113	    -18.25891466	     48.12290963	     31.58808646	     84.65178063	     -0.00128280	     11.98758393
      1.15254237	     -1.22633811	     -6.35261649	     82.73095561	      0.10767258	      0.98017344	      0.29434086	     -0.85959332	      0.49932231	    -13.18601515	      1.69932025	      0.02965873	     16.25156586	     15.92117756	      0.00000000	      0.83328225	      2.05253610	     -2.56186941	      3.36411351	      0.05871486	     11.59416441	    -15.11185062	      0.00000000	      0.05375104	      0.05976545	      0.80792661	      0.09982106	      0.07948805	      0.85842202	      0.08830759	      0.14531372	      0.85842202	      0.06143207	      0.14531372	      0.70693578	      0.04991322	      0.12187371	      0.65644037	      0.03071335	      0.09257668	      0.60594496	      0.38393833	      0.67607874	      4.49344542	      0.00000000	      0.00000000	     15.04436071	      0.61221152	     -7.50928105	     22.51403122	    -13.84708900	     50.70660123	     41.30015922	     89.08901793	    -17.11955594	     -5.47469530	     20.56431814	    -18.88464486	     51.92299467	     30.03366385	     86.61915597	      1.51049961	     10.43204330
